<svg xmlns="http://www.w3.org/2000/svg" viewBox="0 0 394.12 122.04"><g id="Layer_2" data-name="Layer 2"><g id="Layer_1-2" data-name="Layer 1"><path d="M347,81.1c-2.58-9.37-4.8-18.9-9.58-27.49-1.25-2.24-4.53-3.42-7-4.92-3.61-2.21-7.73-3.78-10.89-6.49-6.65-5.72-7.48-14.24-2.79-21.69a21.57,21.57,0,0,1,25.69-9.1Q358.68,17,374.91,22.59c8.45,2.92,11.28,7.29,10.23,16.41-.91,7.91-2.1,15.79-3.22,24a31,31,0,0,0,4.16,2.14c7.26,2.51,8.14,3.36,8,10.65A177.19,177.19,0,0,1,393,97.35c-1.87,13.83-10.88,22.48-24.68,24.2a107.6,107.6,0,0,1-13.57.48q-141.15-.7-282.3-1.48c-1.6,0-3.2,0-4.8,0-9.68-.44-14.51-5-15.56-14.7a52,52,0,0,1-.26-5.59c0-8.49-4.18-14.07-12-17C36.57,82,33.12,81.3,30,79.79c-6.18-3-12.77-5.66-18.12-9.83C.08,60.73-3,46.34,3,32.53c3.93-9.09,10.48-16,18.67-21.37A66.34,66.34,0,0,1,57.84.12C77.56-.12,97.29,0,117,.25A37.09,37.09,0,0,1,128,2c12.26,4,17.38,16.09,11.51,27.66C133.39,41.76,122.65,47.33,109.66,48c-11.7.63-23.45.07-35.18,0-4,0-8-.19-12,.05a21.79,21.79,0,0,0-7,1.5c-3.61,1.48-4.43,3.66-2.44,6.9a27.34,27.34,0,0,0,5.72,6.56c4.09,3.4,8.59,6.31,12.74,9.65,19.35,15.58,41.94,19.94,66,19.12a38.65,38.65,0,0,0,6.35-.67c5.12-1,7.21-2.82,7.13-8C150.85,69.93,156.12,59,164,48.78c6.78-8.89,12.81-18.35,19.28-27.48a67.58,67.58,0,0,1,6.6-8c7.25-7.44,16.08-9.33,25.68-5.91a89.84,89.84,0,0,1,15.7,7.76C266.23,36,301.15,57,336.13,78c2.91,1.74,6.05,3.09,9.08,4.61Zm41.08-8.28c-2-.79-3-1.19-4-1.56-8.22-3.06-9.24-4.91-7.91-13.68,1-6.58,2-13.16,2.71-19.78.57-5.47-.59-7.17-5.72-9Q356.59,23,339.94,17.41a15,15,0,0,0-17.86,6.69c-2.9,4.89-2.42,10,2,13.62,2.84,2.29,6.52,3.49,9.64,5.46s7.43,3.66,8.64,6.55a203.85,203.85,0,0,1,10.43,30.81c1.55,6.46-3.37,9.82-10,7.72a48.61,48.61,0,0,1-10-4.86q-51.78-30.93-103.5-62c-3.42-2.05-6.85-4.12-10.44-5.86-12.33-6-20.15-4.1-28.59,6.76-1.3,1.68-2.48,3.46-3.7,5.21C179.78,37.38,173.22,47.44,166,57c-5.54,7.37-8,15.4-8.39,24.45-.5,11.46-4.53,15.7-16.15,16.42-7.41.47-14.9-.1-22.35-.36C105.58,97,92.74,94,81.31,86.36c-8.65-5.74-17.23-11.58-25.67-17.62A31,31,0,0,1,48.91,62c-6.21-8.41-3.68-16.19,6.3-19a40.69,40.69,0,0,1,11-1.27c13.59-.06,27.18.27,40.77.16,9.78-.07,18.38-3.35,24.53-11.29,7.66-9.91,4-20.16-8.09-23.13a27.44,27.44,0,0,0-6.31-.83c-20-.09-40-.36-59.95,0-12.8.21-24.9,3.83-34.82,12.12A54.18,54.18,0,0,0,9.67,33.78c-6.54,11.94-3.32,24.6,7.77,32.49,4.48,3.18,9.81,5.22,14.89,7.48,4.12,1.84,8.54,3,12.63,4.89,8.26,3.78,12.54,10.42,13.13,19.45.16,2.39.11,4.81.4,7.18.77,6.3,3,8.39,9.16,8.83,1.59.12,3.2.05,4.8.05q141.89.76,283.78,1.5a84.89,84.89,0,0,0,11.17-.44c11.06-1.42,17.92-7.87,19.35-19C387.73,88.62,387.66,80.88,388.07,72.82Z"/></g></g></svg>