<svg xmlns="http://www.w3.org/2000/svg" viewBox="0 0 639.82 498.87"><g id="Layer_2" data-name="Layer 2"><g id="Layer_1-2" data-name="Layer 1"><path d="M171.08,84.78c-5.67-2.28-9.18-4-12.88-5.12Q88.83,59.5,19.4,39.49c-4.83-1.41-9.78-2.89-14.14-5.31-7-3.92-6.95-9.81-.12-14.24A33.3,33.3,0,0,1,13,16.16C49.37,4.7,86.32-2.36,124.67.73Q155.35,3.2,186,5.66c11.19.88,22.26.73,33.33-1.93C232.87.49,245.57,2,257.15,11c14.18,11,30.65,16.71,48.36,19.52,13.39,2.12,26.66,5.13,39.93,8,21.53,4.65,41.41,13.41,60.61,24.08q89,49.47,178.25,98.61a47.38,47.38,0,0,1,9.75,6.85c5.77,5.49,8.34,12.25,6.17,20.3-.2.77-.39,1.55-.53,2.34-2.15,11.28-.22,14.73,10.56,18.81,3.23,1.23,6.53,2.29,9.74,3.57,16.83,6.73,22.14,16.06,19,33.71q-3.75,20.83-7.89,41.59c-2.48,12.53-5.15,25-7.76,37.54-.43,2.08-.84,4.18-1.45,6.22-3.41,11.4-14.27,17.41-25.72,14.28-7.64-2.09-12.75-7.51-12.74-15.41a75.65,75.65,0,0,1,2.74-18c1.35-5.39,4-10.44,5.62-15.78,3.79-12.37.91-20.33-10-27.34-6.28-4-12.86-7.54-19.32-11.27-13.84-8-27.92-15.59-41.45-24.06-10.13-6.35-19.7-13.62-29.25-20.85-8.31-6.29-16.69-12.33-26.51-16.13-14.72-5.7-28.11-4-40.19,6.6-6.08,5.33-11.5,11.13-15.17,18.38-6,11.78-7.06,23.69-1.56,36.14,12.49,28.25,24.84,56.56,36.82,85a47.69,47.69,0,0,1,3.76,17.71c.08,10.85-5.45,18.69-15.9,22.55-5.23,1.94-10.64,3.45-15.78,5.61-12.21,5.13-16,11.13-14.61,24.25a107.36,107.36,0,0,0,4.19,18.63c3.37,11.49,6.91,22.95,10.79,34.28,4.86,14.22-2.68,25-14.82,27.82-16.09,3.79-32.51,6-49.09,2.79-12.42-2.42-21.26-9.29-26.22-21a240.88,240.88,0,0,1-18.71-82.93c-.62-13.22,2-25.88,6.86-38.23,5.67-14.35,11.16-28.8,15.93-43.47,5.46-16.78,6.3-33.95,1.65-51.19-3.45-12.85-6.42-25.83-10.33-38.53-2.09-6.81-5.36-13.34-8.72-19.67-4.86-9.19-12.32-15.57-21.76-20.34-23-11.64-45.76-23.93-68.54-36.09a158.79,158.79,0,0,1-31.16-22.2c-7.14-6.4-14.78-12.22-22.17-18.34a41.38,41.38,0,0,1-5.3-4.84c-3.59-4.26-3.43-7.92.44-12C166.63,87.37,168.16,86.71,171.08,84.78ZM7.32,25.89l-.1,2.2A79.94,79.94,0,0,0,15,31.52c5.58,1.79,11.24,3.29,16.87,4.92Q95.53,54.83,159.18,73.31a49.84,49.84,0,0,1,13,5.75c4.37,2.83,4.58,7,1.14,10.94-1.35,1.52-3.5,2.34-5.94,3.91,3.63,3.29,5.71,5.29,7.91,7.12,7.37,6.15,15,12,22.14,18.39a154.5,154.5,0,0,0,30,21.14c23,12.24,46,24.55,69.25,36.46,8.32,4.27,15.44,9.68,20.11,17.67,4.15,7.1,8.34,14.4,10.89,22.14,4.48,13.62,7.64,27.67,11.49,41.51,5.63,20.25,3.72,40.18-2.88,59.74-4.41,13.11-9.4,26.05-14.63,38.86a90.91,90.91,0,0,0-6,45.44c.27,2.38.41,4.78.71,7.16a246.05,246.05,0,0,0,16.37,63.21c4.32,10.51,12,16.68,23.17,18.54,15.27,2.54,30.36.51,45.17-2.91,9.93-2.29,13.26-9.6,10.25-19.73-3.5-11.73-7.51-23.32-10.93-35.07a108.05,108.05,0,0,1-4.24-19.43c-1.55-15.86,3.86-24.44,18.62-30.58,5.15-2.13,10.57-3.61,15.81-5.54,7.91-2.91,12.21-8.84,11.89-17.1A44.53,44.53,0,0,0,439,345.58q-18.09-42.66-36.82-85c-5.38-12.24-5-24.32-.09-36.46,4-9.84,10.64-17.67,18.59-24.64,14.66-12.83,31.07-14.95,48.31-7.08,9.34,4.27,17.83,10.49,26.44,16.24,12.16,8.13,23.78,17.11,36.17,24.87,13.3,8.33,27.26,15.62,40.89,23.44,5.07,2.92,10.24,5.75,15,9.14,10.88,7.76,14.53,17.94,11,30.79-1.61,5.89-4.39,11.45-6,17.35a72,72,0,0,0-2.7,16.37c-.16,5.14,3.09,8.23,8,9.6,7.6,2.1,14.65-1.36,17.45-8.75a46.76,46.76,0,0,0,1.75-7c3.61-17.46,7.28-34.92,10.75-52.42,2-9.92,3.92-19.87,5.28-29.89,1.52-11.2-1.84-16.84-12.07-21.66-3.11-1.47-6.42-2.56-9.68-3.72-18-6.41-20.89-11.29-17.21-29.81,1.17-5.86-.41-10.62-4.62-14.44a45,45,0,0,0-8.5-5.88c-59.66-33-119.51-65.67-179-99a238.15,238.15,0,0,0-74.89-26.49C318,39.46,308.81,37.6,299.64,36A110.72,110.72,0,0,1,251.75,15.1C244.21,9.44,236,7.74,226.87,9a52.3,52.3,0,0,0-7.09,1.1c-11.25,3.16-22.68,2.84-34.13,1.95Q155.37,9.69,125.1,7.17C87.83,4.05,51.89,10.69,16.56,21.8,13.36,22.8,10.4,24.51,7.32,25.89Z"/></g></g></svg>