<svg xmlns="http://www.w3.org/2000/svg" viewBox="0 0 279.76 220.05"><g id="Layer_2" data-name="Layer 2"><g id="Layer_1-2" data-name="Layer 1"><path d="M125,219.19H19.45a52.15,52.15,0,0,1-7.19-.27C3.84,217.74-.45,212.45,0,204.07c.42-7.25,5.1-11.62,13.39-11.79,6.92-.15,13.86.25,20.78.49a49.33,49.33,0,0,0,21.86-3.72,50.79,50.79,0,0,1,8.31-2.81c7.26-1.74,13.65-.86,18.45,5.84a70.41,70.41,0,0,0,8.64,9.4,18.36,18.36,0,0,0,5.89,4c1.46.57,4,.48,5-.43a5.39,5.39,0,0,0,.94-4.86A42.7,42.7,0,0,0,98.44,192c-3.68-5.22-7.68-10.23-11.29-15.5a78.45,78.45,0,0,1-13.21-32.27c-.46-2.89-1.21-5.74-1.75-8.62-1.9-10.24-6.12-18.67-14.7-25.53-18.2-14.54-27.75-34.82-33.9-56.7-1.44-5.15-1.18-11.24-.06-16.55a23,23,0,0,1,23.71-18.7c8.72.27,17.39,2.18,26.06,3.52,10.53,1.61,21.06,3.26,31.54,5.16,5.49,1,10-.22,13.73-4.34,3.24-3.54,6.73-6.85,9.88-10.47C135.94,3.37,145-1.26,156.67.3c9.75,1.31,19.61,2.15,29.23,4.13,27.21,5.59,47.57,21.9,64.52,43C259,58,267,69,274.94,80c5.8,8,4.84,12.84-3.08,19-14.61,11.3-15,12.15-9.24,29.39,4.46,13.38,9.35,26.63,14,40,2.55,7.37,3.95,14.84,2.7,22.75-2.13,13.39-10,21.65-22.69,25a100.06,100.06,0,0,1-22.08,3.31c-19.16.61-38.35.58-57.53.68-17.33.09-34.66,0-52,0Zm-21-5.63h9.22c21.84.05,43.68.22,65.53.12,19.16-.09,38.33-.3,57.48-.86a85.19,85.19,0,0,0,17.33-2.65c14.29-3.46,21.48-13.86,19.66-28.38a69.71,69.71,0,0,0-3.32-13.1c-5.14-15.39-10.5-30.71-15.7-46.09-3.31-9.78-.54-17.78,7.47-24.07,2.52-2,5.13-3.82,7.7-5.72,3.2-2.37,3.44-5.12,1.11-8.25-12.58-16.85-24.22-34.46-39.66-49-10.61-10-22.61-17.73-36.53-22.25-13.52-4.39-27.46-6.27-41.63-6.85-6.29-.25-11.42,2.21-15.91,6.24-2.17,1.95-4,4.24-6,6.4-14.42,15.78-15.53,16.13-36.88,12.37-13.1-2.3-26.21-4.58-39.34-6.73-17.35-2.83-27.9,7.69-25.27,25.11a31.43,31.43,0,0,0,1.18,4.63C37.19,76,47.7,95.13,66,109.17a26.28,26.28,0,0,1,9.56,14.34c1.67,6.16,3.55,12.32,4.52,18.6,2,12.72,7.34,23.84,14.67,34.16,3.69,5.21,7.83,10.11,11.44,15.37C112.22,200.51,111.84,204.82,104,213.56Zm-9.23-.12c-6.14-6.29-11.87-11.75-17.09-17.65-2.82-3.19-5.84-4.46-9.83-3.62a28.16,28.16,0,0,0-6.14,1.69c-11.49,5.35-23.62,5.88-36,5.1a104.88,104.88,0,0,0-12.78-.22c-4.63.28-6.42,2.35-6.48,6.43s1.64,6.41,5.91,7.21a40.63,40.63,0,0,0,7.16.4q32,.36,64,.66C87.16,213.47,90.85,213.44,94.74,213.44Z"/></g></g></svg>