<svg xmlns="http://www.w3.org/2000/svg" viewBox="0 0 457.59 254.91"><g id="Layer_2" data-name="Layer 2"><g id="Layer_1-2" data-name="Layer 1"><path d="M67.61,59.84c-3.24-2.16-5.69-3.68-8-5.37-7.08-5.12-8.84-11.59-5.43-19.61,6.41-15.07,21-23,37-19.75a78.07,78.07,0,0,1,15.13,4.95c31.54,13.56,63,27.36,94.51,41,13.1,5.64,19.86,15.32,20.53,29.6a215.06,215.06,0,0,0,2.41,24.58c1.48,9,6.31,16,13.82,21.6,10.67,8,20.77,16.68,31.11,25.07.62.51,1.25,1,1.83,1.56,7.33,7,6.59,13.67-2.12,18.61-4.16,2.36-8.6,4.3-12.56,6.94-2.69,1.79-4.77,4.48-7.9,7.52,3.1,1.56,4.82,3,6.71,3.28q10.62,1.51,21.34,2.34c7.6.58,13.33-3.05,17.67-9a107.93,107.93,0,0,0,7.57-11.25q34.89-63.32,69.65-126.72c2.37-4.31,4.26-8.56,3.34-13.63-1.19-6.63-5.45-10.3-12.21-10-5.32.21-10.62.74-15.94,1.16-9.43.73-16-4.77-16.75-14.1C328.39,8,333.76.42,343.32,0a76.84,76.84,0,0,1,17.41,1.63c14.43,2.78,28.51,6.68,41,15,10.47,7,18.34,15.65,22.41,28.08,10,30.6,20.9,60.91,31.11,91.45,5.79,17.33,1,29.13-14.76,38.42-26.32,15.5-54.45,26.64-83.8,34.86-4.61,1.3-9.17,2.78-13.75,4.19-6.23,1.91-11.81,4.95-16.09,9.94-6.81,7.94-15.41,11-25.67,10-6.63-.64-13.25-1.26-19.89-1.7-6.89-.45-12.13,2.2-16.47,7.84a52.35,52.35,0,0,1-12,11.45c-7.85,5.27-16.16,4.93-23.75-1a114.07,114.07,0,0,1-11.32-10.09c-7.27-7.48-15.92-11.9-26-14.7C136.8,210.18,82,194.55,27.25,179c-2.81-.79-5.6-1.71-8.34-2.71-18.17-6.64-27.35-31.9-8.56-47A175.73,175.73,0,0,0,51.74,82.12C56.22,74.62,61.87,67.83,67.61,59.84ZM270.49,173c-2.93-3-4.55-5.06-6.51-6.67-10.08-8.29-20-16.82-30.48-24.59-8.64-6.4-14.12-14.6-16-24.89A187,187,0,0,1,215,91.53c-.52-11.9-5.75-19.93-16.86-24.69-31.57-13.51-63-27.4-94.49-41A65.37,65.37,0,0,0,90,21.38c-11.24-2.13-20.46,1.38-27.09,11-6.11,8.87-5.33,13.13,3.59,18.85,8.25,5.3,8.88,8.73,3.2,16.88-7.31,10.48-14.28,21.22-22,31.41a253.08,253.08,0,0,1-18.77,21.71c-4.57,4.81-9.82,9-14.91,13.29-13.3,11.21-7.48,28.29,4.5,34.58a50.68,50.68,0,0,0,9.73,3.53q84.46,24,169,47.81a50.35,50.35,0,0,1,21.4,11.84c4.09,3.82,8.3,7.51,12.36,11.35,7.16,6.75,14.86,5.65,21.54.09a27.44,27.44,0,0,0,6.08-6.29c6.09-9.86,15.14-12.83,26-11.9,6.1.53,12.19,1.16,18.29,1.71,7.41.68,13.65-1.68,18.52-7.37,5.75-6.72,13.24-10.56,21.55-13,2.55-.76,5.1-1.52,7.67-2.23,30.12-8.39,59.15-19.43,86.23-35.26,13.5-7.9,17.07-16.64,12.11-31.47-10-30-20.69-59.87-30.47-90C414.4,35.05,406,26.54,395,20S371.9,10.36,359.59,8a74.63,74.63,0,0,0-15-1.6c-6.39.06-9.53,4.53-8.93,11.48.53,6.06,3.77,8.75,10.21,8.36,5-.31,10.1-.76,15.15-1.1,10.35-.7,18,5.48,19.53,15.71a23.75,23.75,0,0,1-3,15.36c-24,43.62-47.86,87.35-72.06,130.88-3.18,5.72-7.82,10.74-12.37,15.53a17.67,17.67,0,0,1-8.88,4.94,63.3,63.3,0,0,1-33.87-2.4c-8.69-3.17-10.49-10.28-3.87-16.68,3.94-3.81,9.05-6.44,13.72-9.46C263.06,177.16,266.07,175.59,270.49,173Z"/></g></g></svg>