<svg xmlns="http://www.w3.org/2000/svg" viewBox="0 0 323.98 270.26"><g id="Layer_2" data-name="Layer 2"><g id="Layer_1-2" data-name="Layer 1"><path d="M175.36,188c3.1,2.58,4.59,3.95,6.21,5.16,3.42,2.54,7,4.88,10.35,7.51a25.8,25.8,0,0,1,10.14,19.14c1.29,16.3-3.69,30.46-14,42.91-7.8,9.41-15.87,10.06-24.48,1.45C151.34,252,139.42,239.38,127.35,227c-3.34-3.45-6.73-6.84-10-10.37-6-6.53-13.12-7.6-21.09-4.29C92.1,214,88,216,83.83,217.71c-11.07,4.45-22.18,4.52-33.59.9S31.6,207.56,26.76,197.25c-3.85-8.19-1.16-14.76,7.26-17.93a35.92,35.92,0,0,1,9.31-2.16c25.48-2.3,51-4.45,76.45-6.66q42.21-3.65,84.41-7.32l60.52-5.24a21.29,21.29,0,0,0,4.75-.56c3.33-1.08,5.63-3.41,5.28-7.06-.32-3.29-2.77-5-6-5.44a61.53,61.53,0,0,0-6.38-.34q-92.73-1.71-185.47-3.37c-20-.35-40-.49-60-.73a51.86,51.86,0,0,1-5.58-.26c-5.21-.64-9.07-3.31-10.67-8.37C-1,126.49.54,121.71,4.6,118s8.89-4.66,14.05-2.24c2.4,1.12,4.63,2.67,7.11,3.58,1.31.49,3.63.61,4.32-.16a6.07,6.07,0,0,0,1.41-4.91,23.39,23.39,0,0,0-3.9-6.89C18.81,95.58,17,82.72,21.21,68.76c4.06-13.56,9.34-26.35,22.66-33.4a86.57,86.57,0,0,1,17.71-7c22.6-6.12,45.35-11.69,68-17.79,6.91-1.87,13.54-4.77,20.31-7.19,2.25-.81,4.47-1.73,6.77-2.38,10-2.84,14.87.2,16,10.44,1.82,17,3.57,33.92,5,50.91.81,9.8,5.24,17.66,11.34,25,8.06,9.66,28.24,8.2,37.38,0,2.38-2.13,4.8-4.22,7.11-6.43,11.31-10.84,33.32-7.33,41.4,4.06,15.11,21.3,30.82,42.16,46.29,63.2,3.53,4.8,3.78,9.81,1,15s-5.62,10.29-8.46,15.42c-3,5.49-7.78,7.8-13.94,7.39-37.85-2.49-75.66-.08-113.49.86C183.18,186.94,180.17,187.5,175.36,188Zm74.34-9.59c10.17.23,29.35.51,48.51,1.18,5.19.18,8.7-1.29,11-6a99,99,0,0,1,5.8-10.48c3.12-4.89,2.86-9-.86-13.77-8.71-11.11-16.92-22.61-25.28-34-6.47-8.79-13.18-17.44-19.21-26.53-5.74-8.66-23.8-11.37-32.17-3a88.34,88.34,0,0,1-7.13,6.41c-12,9.69-30.93,11.28-41.77,3-9.75-7.41-15.29-17.65-17-29.71-1.06-7.37-1.3-14.85-2-22.28-1-10.33-2.05-20.67-3.24-31-.69-5.94-2.06-6.74-7.91-5.13-2.05.56-4,1.39-6.05,2-15.2,4.82-30.31,10-45.65,14.34-14.58,4.13-29.37,7.56-44.14,11C45.81,38.47,34.38,48,29.28,64.54c-.86,2.8-1.64,5.62-2.45,8.44-3,10.39-1.32,20,4.79,28.9a74.76,74.76,0,0,1,4.82,7.34c3,5.7,2.35,10.87-1.52,14.73-3.4,3.41-7.11,3.62-13.22.67-2.16-1-4.14-2.51-6.38-3.27a6.64,6.64,0,0,0-8.56,5c-.93,3.69,1,6.67,5.21,7.39a46.32,46.32,0,0,0,7.18.32l243.77,4.11a44,44,0,0,1,8,.57,12.84,12.84,0,0,1,10.4,10.78,13.1,13.1,0,0,1-7.52,13,24.08,24.08,0,0,1-7.7,1.7c-26,2.3-52,4.5-78,6.75q-63.3,5.46-126.58,11A198.22,198.22,0,0,0,37.74,185c-6.5,1.37-7.66,4.73-4.66,10.64,4,7.86,9.72,13.71,18.44,16.65,10.33,3.48,20.38,3.42,30.42-.65,4.44-1.79,8.7-4,13.18-5.71,9.95-3.73,18.84-2,26.36,5.73,2.23,2.28,4.43,4.61,6.66,6.9,13,13.39,25.91,26.83,39,40.12,6.88,7,10.8,6.68,16.83-1.07,4.77-6.15,8.57-12.78,10.47-20.46,4.44-18,1.37-26.38-13.85-36.84a55.63,55.63,0,0,1-7.7-5.68c-4.87-4.74-3.31-11,3.19-13a31,31,0,0,1,7.88-1C202.86,179.9,221.78,179.33,249.7,178.44Z"/></g></g></svg>