<svg xmlns="http://www.w3.org/2000/svg" viewBox="0 0 536.15 275.37"><g id="Layer_2" data-name="Layer 2"><g id="Layer_1-2" data-name="Layer 1"><path d="M195.81,261.46c-3.45,1.51-6.34,2.7-9.16,4-9.55,4.47-19.46,7-30.13,6.6-13.83-.56-27.75-.1-41.5-1.46-21.22-2.09-37.2-13.43-48.92-31-9.5-14.22-14.71-30.07-17.25-46.86Q43,154.11,37.24,115.38c-.61-4.14-1.47-7.61-6.22-9.12-3.78-1.21-5.8-4.5-6.57-8.43C21.36,82,14.16,67.7,7.17,53.29A76.82,76.82,0,0,1,.32,32.22c-1.92-12.07,4.94-21.47,17.37-23C33.25,7.2,48.6,3.62,64,.71,75-1.35,80.16.88,86.4,10.16,99.94,30.27,113,50.69,127.3,70.28c7.78,10.7,17,20.46,26.51,29.77,28.51,28,57.49,55.57,86.13,83.46,3.94,3.83,7.32,5.59,13.26,4.27,9.7-2.15,19-.44,26.49,7.3,4.41,4.57,10,6.58,16.52,6.77,48,1.37,95.91,3,143.86,4.43,23.45.71,46.9,1.18,70.34,1.9,22.91.69,32.27,17.39,20.9,37.32-6.17,10.82-14.91,18.53-27.18,22.08-16.72,4.83-33.67,8-51.14,7.78q-122.73-1.68-245.46-3.43C199.36,271.81,198.76,271.26,195.81,261.46Zm8.56,3.71a29.48,29.48,0,0,0,3.06.35q123.95,1.74,247.87,3.42c15.85.21,31.23-3,46.43-7.24,10.9-3,18.72-9.86,24.14-19.59,8.68-15.61,2.33-27-15.52-27.54-20.24-.67-40.5-1.12-60.74-1.73-50.89-1.53-101.77-3.19-152.66-4.54-8.5-.22-15.84-2.62-21.66-8.57-6.15-6.3-13.71-7.66-21.34-5.58-8,2.18-13-.65-18.36-5.91-29.18-28.49-58.73-56.59-87.86-85.14C139.2,94.74,130.8,86,123.83,76.34,109.18,56,95.5,35.05,81.48,14.3,76.26,6.58,73.72,5.38,64.84,7,49.4,9.94,34,13.35,18.5,15.52,10.59,16.63,5.33,21.67,6.62,31.13a61,61,0,0,0,5.67,18.12c7.24,14.86,14.76,29.54,18.22,45.91.43,2,2.12,4.79,3.86,5.41,6.71,2.36,8.29,7.56,9.19,13.67,3.79,25.82,7.71,51.62,11.59,77.43,2.36,15.72,7.14,30.6,15.93,44,10.66,16.21,25.28,26.73,44.84,28.68,12.17,1.2,24.49.74,36.72,1.4a67.69,67.69,0,0,0,34.67-7.57C197.67,253,200.62,254.37,204.37,265.17Z"/></g></g></svg>