<svg xmlns="http://www.w3.org/2000/svg" viewBox="0 0 498.01 132.45"><g id="Layer_2" data-name="Layer 2"><g id="Layer_1-2" data-name="Layer 1"><path d="M188.11,122.76c-19-.49-37.58-1.07-56.23-1.45-14.92-.31-29.85-.19-44.77-.63a119.92,119.92,0,0,1-44.27-9.46c-4.16-1.79-8.42-3.33-12.58-5.1-3.64-1.55-6.58-1.05-9.25,2.09a24.78,24.78,0,0,1-6,5.22C8.8,117.2,2.28,115,.58,108a20.8,20.8,0,0,1,.53-11.63C6.22,83,13.38,70.84,25,62c8.49-6.44,17.2-12.58,25.9-18.75,5.64-4,11.41-5.86,17.31-.23,2.73,2.61,5.94,2,8.94.59,11-5.33,21.89-10.57,31.32-18.85s21.62-9.69,34-7c9.89,2.13,19.8,4.2,29.59,6.72,7.37,1.88,9.24.08,10-6.64,1.32-11.44,6-15.28,17.56-17,16.41-2.41,32.25.82,48.34,3.52,35.38,5.94,66.4,22.32,97.49,38.79a9.63,9.63,0,0,1,5.39,9.9c-.61,7.92,3.55,12.35,10.27,15.32C381,77.22,400.93,86.16,420.88,95c14.36,6.38,29.51,8.8,45.12,9,7.19.09,14.37.59,21.56.91a28.37,28.37,0,0,1,3.19.25c4.63.75,7.39,3.46,7.25,7.06a8,8,0,0,1-7.36,7.23,44.39,44.39,0,0,1-10.36-.37c-10.15-1.5-20-.53-30.13,1.29-23.31,4.2-46.74,7.83-70.2,11.14-8.13,1.14-16.49.94-24.74.86-51.71-.51-103.41-1.22-155.11-1.68C194.19,130.66,189.44,129.8,188.11,122.76Zm301-9.45-.1-1.83c-6.06-.35-12.12-.74-18.18-1-6.91-.36-13.86-.37-20.74-1.06a101.62,101.62,0,0,1-31.5-8.41Q388,87.27,357.37,73.6c-6.73-3-12.48-7.66-12.45-15.21s-3.75-10.73-9.7-13.47c-7.25-3.33-14.28-7.15-21.35-10.87a233,233,0,0,0-63.7-22.63c-16.77-3.3-33.41-6.94-50.65-4.11-7.68,1.26-9.91,3.3-11.27,11.06-.37,2.1-.57,4.24-1.1,6.29-1.14,4.43-4.27,6.7-8.68,6.9a27.54,27.54,0,0,1-7.09-.83C161.24,28.54,151.15,26.11,141,24c-10.64-2.2-20.87-1.18-29.25,6.38C101.85,39.3,90.07,44.8,78.14,50.06c-4.6,2-9.55,2.08-13.47-1.68-3.52-3.36-6.61-2.43-9.94,0C45.9,54.8,36.9,61,28.24,67.65,18,75.52,12,86.53,7.1,98.17c-1.49,3.53-2.06,7.2,2.15,11.06,2.29-1.72,5.1-3.17,7-5.39,4.73-5.47,10.14-6.33,16.5-3.54,1,.43,2,.76,2.95,1.21,20.67,9.62,42.42,13.23,65.17,13.22,27.43,0,54.87,1.15,82.31,1.57,6.27.1,11.6,1.07,13.65,7.72,1.56.09,2.62.2,3.68.21q79.53.92,159.06,1.76a134.42,134.42,0,0,0,21.53-1c25.26-3.84,50.41-8.37,75.68-12.14,7-1,14.24-.52,21.38-.46C481.82,112.39,485.46,113,489.11,113.31Z"/></g></g></svg>