<svg xmlns="http://www.w3.org/2000/svg" viewBox="0 0 496.53 252.51"><g id="Layer_2" data-name="Layer 2"><g id="Layer_1-2" data-name="Layer 1"><path d="M407.15,210.19c0,4.69.16,8.12,0,11.53-.33,5.82-.18,11.8-1.5,17.41-2.25,9.52-7.4,13.3-17.22,13.36-17.32.1-34.64-.13-52-.21l-137.53-.62c-10.18,0-11-.6-14.73-9.91A29.46,29.46,0,0,0,156.94,223c-6.93-.08-13.87-.26-20.79,0A275.7,275.7,0,0,1,57,214.3c-8.5-2.19-17.17-3.7-25.72-5.73S19.72,200.06,24,192.3c2.83-5.13,6.35-9.87,9.19-15,4.26-7.7,3.81-9.94-2.49-15.85-7.77-7.29-15.43-14.72-23.44-21.74-6-5.27-8.38-11.41-6.74-19.22C2.91,109,5,97.5,7.66,86.09a81,81,0,0,1,5.1-14.22C18.05,59.93,23.25,48,26.15,35.18c1.91-8.45,3.92-9.85,12.55-10.52A40.06,40.06,0,0,0,58,17.71,204,204,0,0,1,79.88,4.6C93.55-2.14,107.2-1.58,120.11,7c17.32,11.48,34.64,23,51.82,34.65,7.26,4.93,8.34,9,4.23,17-3.32,6.45-2.87,12.1,1.15,17.93,7.71,11.19,15,22.66,22.92,33.7,16.26,22.68,38.94,33.31,66.44,33.61,11.43.12,22.87-1.3,34.3-2,8.25-.51,14.61-4.47,19.74-10.73,1.86-2.27,3.75-4.5,5.73-6.67A23.83,23.83,0,0,1,340,116.6c23.17-4,46.47-6.79,69.89-2.53a61.8,61.8,0,0,1,18,6.12c21.07,11.4,41.89,23.28,62.71,35.15,6.29,3.59,7.24,6.68,4.17,13.23-6.78,14.47-13.65,28.9-20.83,43.17-5.18,10.32-12.79,13.33-23.86,10.2-11.26-3.19-22.52-6.43-33.8-9.59C413.59,211.58,410.76,211,407.15,210.19Zm-30.94,35.1h14.51c6-1,8.54-3,9.25-9.75s.34-13.8.3-20.71c0-8.82,4-12.21,12.55-9.93,12.6,3.35,25.14,6.93,37.69,10.47,10.05,2.84,14,1.25,18.64-8.12,6.36-12.89,12.57-25.86,18.78-38.83a67.23,67.23,0,0,0,2.28-6.58C468.92,150,448,138.38,427.09,126.73c-9.28-5.18-19.3-7.37-29.82-8-17.92-1-35.65.77-53.32,3.47a22,22,0,0,0-13.71,7.53c-2.09,2.42-4.07,4.94-6.21,7.31-5.77,6.35-12.77,10.45-21.45,11.07-12,.85-23.93,2.27-35.88,2.15-29.48-.29-53.82-11.72-71.37-35.85-8.31-11.41-15.88-23.34-23.78-35-4.89-7.23-5.6-14.63-1.59-22.61,3.1-6.17,2.87-6.85-2.5-10.47C150.91,35.12,134.21,24.15,117.67,13c-12-8.16-24.45-8.36-37-1.7A215.19,215.19,0,0,0,61,23.39c-6.35,4.31-13.22,7.12-20.78,7.44-4.83.21-7.16,1.78-8.13,6.6-2.7,13.41-8.38,25.77-14,38.13A66.21,66.21,0,0,0,13.6,88.33C11.17,99,9.27,109.73,7,120.4c-1.31,6,.1,10.71,4.91,14.92,8.63,7.53,16.66,15.75,25.27,23.29,5.74,5,6.48,10.77,3.69,17.24a109.41,109.41,0,0,1-6,11.23c-1.47,2.53-3.34,4.84-4.74,7.4-2.61,4.78-1.88,6.56,3.42,7.93,5.67,1.46,11.39,2.72,17.13,3.88,15.13,3,30.16,7.27,45.44,8.62,20.12,1.77,40.44,1.37,60.68,1.64,15.62.21,26.44,8,32.54,21.63,2.55,5.71,5.33,7.23,11.16,7.22,41.57-.06,83.14.29,124.71.37C342.16,245.8,359.19,245.46,376.21,245.29Z"/></g></g></svg>