<svg xmlns="http://www.w3.org/2000/svg" viewBox="0 0 328.17 277.52"><g id="Layer_2" data-name="Layer 2"><g id="Layer_1-2" data-name="Layer 1"><path d="M197.92,277.5q-46.38,0-92.77,0c-10.87,0-13.83-1.58-17.17-11.67C77.12,233,65.78,200.25,56.09,167c-4.81-16.51-6.59-33.93-9.47-51C42.73,93,36.15,71,23.32,51.12c-7.07-11-13.21-22.53-19.7-33.85C1.23,13.11-1.77,8.72,1.31,3.89,4.66-1.35,10,0,15.1.73A243.13,243.13,0,0,1,80.81,20c26.12,12,52.09,24.4,78.54,35.65,17.35,7.39,35.43,13,53.18,19.5,4.49,1.63,9.24,2.82,13.37,5.12,7.93,4.43,9,11.88,2.92,18.64a34.47,34.47,0,0,1-6.67,5.67,90.59,90.59,0,0,1-35.26,14.3,44.33,44.33,0,0,1-26.49-3.42q-19.62-9-39.31-17.76a49.44,49.44,0,0,0-9.71-3.55C96,90.88,82.83,103.59,86.05,119c3,14.58,6.61,29.1,10.79,43.4,4.38,15,16.63,19.41,30.12,11.67,5.55-3.17,10.87-6.75,16.53-9.7a57.58,57.58,0,0,1,41.86-5c39.53,9.81,79.1,19.48,118.63,29.29a54.49,54.49,0,0,1,9.76,3.47c8.18,3.77,12.82,9.78,12.94,19.29.18,13.59,1.11,27.16,1.48,40.75.31,11.62-3.33,16.25-14.64,19.47-12.43,3.53-25.25,4.16-38,4.31-25.85.32-51.71.1-77.57.1ZM7.57,6.14l-1.31,2C7.67,10.9,9,13.72,10.51,16.4c9,15.75,18.23,31.32,26.8,47.27A114.74,114.74,0,0,1,46.23,85.8c2.82,9.69,4.81,19.65,6.67,29.59,2.74,14.64,4.19,29.58,7.72,44,8.79,36,21.62,70.74,33.76,105.7,1.75,5.05,5,6.14,9.79,6.05q30-.56,60-.79c37-.29,74.1-.31,111.14-.79,12.49-.17,25.06-.64,37.2-4.31,7.8-2.35,9.52-4.48,9.31-12.54-.36-13.31-1.35-26.62-1.37-39.93,0-8.27-4-12.88-11.11-15.64a62.64,62.64,0,0,0-7.59-2.43Q242.42,180,183.11,165.41a48.86,48.86,0,0,0-34.26,3.49c-6.42,3.18-12.46,7.12-18.7,10.68-17.05,9.76-33.56,3.77-39.23-15-4.45-14.76-8.15-29.8-11.22-44.92-3.8-18.76,12.43-35.1,31.33-32a51,51,0,0,1,12.07,4c13.15,5.8,26.22,11.78,39.28,17.8,5.92,2.73,12.07,4.35,18.57,3.78,15-1.33,28.29-7.11,40.39-15.86a14.71,14.71,0,0,0,2.85-2.78c2.85-3.59,2.65-6.34-1.33-8.55-3.44-1.92-7.33-3-11.08-4.39C194,75.16,175.9,69.61,158.54,62.27,134.28,52,110.59,40.43,86.64,29.43,66.26,20.07,45.34,12.29,23.11,8.57,17.94,7.7,12.75,7,7.57,6.14Z"/></g></g></svg>