<svg xmlns="http://www.w3.org/2000/svg" viewBox="0 0 595.69 176.69"><g id="Layer_2" data-name="Layer 2"><g id="Layer_1-2" data-name="Layer 1"><path d="M183.41,83.79c5-1.36,8.82-2.37,12.62-3.42Q231,70.68,266,61c2.81-.78,5.54-1.86,8.33-2.72s4.61-2.3,4.56-5.62c-.11-6.71,4.61-9.34,10.07-10.52a155,155,0,0,1,20.5-3.25c16.45-1.31,32.94-2.15,49.42-3.19.78,0,1.55-.27,2.87-.51,1.86-4.95,1.11-10.29,1.11-15.46,0-16.41,1.79-16.23,15.83-17.14C426.38-.53,474.08,0,521.77,0c19.73,0,39.45.1,59.17.18a43.89,43.89,0,0,1,7.17.32c4.74.81,7.32,3.26,7.38,8,.2,16.51.36,33,0,49.54-.22,8.54-3.77,11.22-13,11.29q-79.94.66-159.89,1.2c-40.77.22-81.55.5-122.32.2a154.18,154.18,0,0,0-45.61,6.65C236.52,82.82,218.34,88,200,92.71c-11.5,3-20.54,9.07-26.51,19.05a43.42,43.42,0,0,1-25.74,20.08c-8.64,2.64-16.86,6.63-25.49,9.28-13.83,4.24-25.5,11.9-36.25,21.24-4,3.5-8,7.08-12,10.52-6.26,5.27-10.82,5.1-16.76-.64-2.11-2-4-4.25-6-6.39Q28.17,141.42,5.15,117c-6.67-7.09-6.64-8.8-1.2-17.25a46.15,46.15,0,0,0,4.46-9.32c3.24-9,6.42-18.06,9.26-27.21a65.18,65.18,0,0,1,12-22.38C37,32,44.38,23.24,51.85,14.55,58.62,6.66,68,4.2,77.69,3.76c25-1.15,50-1.68,75.07-2.42a28.36,28.36,0,0,1,4.78.3c5.16.7,7,2.58,7.48,7.63.19,2.11-.37,4.37.17,6.36.64,2.39,1.55,5.16,3.29,6.71a114.45,114.45,0,0,0,12.68,9.35c4.16,2.77,4.9,6.65,4.49,11.15-.78,8.76-1.62,17.51-2.19,26.28C183.17,73.56,183.41,78,183.41,83.79ZM5.88,108.4c6.82,7.27,13.18,14,19.54,20.79C37.11,141.6,48.77,154,60.53,166.37c4.69,4.92,5.48,4.88,10.47.62,4.46-3.8,8.84-7.69,13.31-11.48,10.24-8.67,21.35-15.7,34.33-19.79,10.64-3.35,21-7.74,31.47-11.5,5.71-2,10.71-5.18,14-10.16,6-9.1,12.41-17.69,22.65-23.51-9.06-2.82-10.65-4.61-10.21-12.76.6-11.16,1.53-22.31,2.63-33.43.41-4.2-.67-6.42-4.51-8.88-8.87-5.7-18.26-11.67-16.12-24.81.1-.64-.53-1.39-.87-2.23a16,16,0,0,0-3.13-.57c-26.34.79-52.68,1.43-79,2.58-7.52.33-14.56,3-19.72,9.18-5.94,7.18-12,14.24-18.11,21.31A79.12,79.12,0,0,0,22.48,68.71C18.18,82.06,15.13,96,5.88,108.4ZM278.2,64.34c20.95,0,42.25.08,63.55,0Q460.43,63.74,579.1,63c9.79-.06,10.07-.13,10.21-9.6.21-14.11,0-28.22-.11-42.34,0-1.24-.52-2.47-1-4.58-72.8.58-145.38-2.19-218.6,3.16-.16,7.6-.23,14.47-.47,21.34-.33,9.16-2.38,10.68-11.64,11.13-16.48.81-32.94,2-49.39,3.27a112.83,112.83,0,0,0-17.3,2.92c-2,.47-5.13,2.59-5.12,3.93C285.75,58.41,282.42,62,278.2,64.34Z"/></g></g></svg>