<svg xmlns="http://www.w3.org/2000/svg" viewBox="0 0 294.16 345.41"><g id="Layer_2" data-name="Layer 2"><g id="Layer_1-2" data-name="Layer 1"><path d="M28.92,231.52c5.43,6,7.45,6.12,11.84,1.16,8-9.08,8.62-14.47,2.93-25.21-7.85-14.82-15.6-29.7-23.45-44.53A115.82,115.82,0,0,1,6.8,114.88c-.68-11.7-1.63-23.38-2.43-35.07a18.17,18.17,0,0,1,0-4c.83-5.78,5.18-8.64,10.32-6A35.65,35.65,0,0,1,25,78.41c7.71,9.13,11.77,20.13,15,31.5q4.62,16.53,9.54,33a67.75,67.75,0,0,0,3.17,8.18c6.74,15.07,19.5,21.68,35.62,18.65,6.91-1.31,12.2-5.07,16.54-10.39,4.71-5.79,9.43-11.56,14.07-17.4,6.71-8.48,15.63-10.58,25.77-8.91,8.48,1.4,15,5.76,17.87,14.09,2.24,6.52,3.73,13.3,5.37,20,.82,3.39,1.33,6.82,5.23,8.93,6.88-2.15,12-7.15,16.91-12.33,2.84-3,1.59-6.4.51-9.77-5.31-16.47-10.62-32.94-15.78-49.45-5.64-18-11.09-36.13-16.68-54.18-.92-3-2.12-5.89-3.52-9.72-3.44,2-6.08,3.63-8.84,5.07-9.13,4.79-15.95,2.5-20-7.08-4.12-9.83-5.17-19.83,2.13-28.68,7.54-9.13,17.85-11.47,29-9,13.46,3,22.56,11.49,27.2,24.54Q198.88,67.23,213.65,109q39,110.73,77.91,221.47c.71,2,1.47,4,2,6.06.88,3.24,1.15,7-2.22,8.44-2.18.92-5.91.27-8-1.1A45.25,45.25,0,0,1,265.3,322.1q-10.17-26-20.42-52c-5.61-14.13-2.17-12.26-17.92-12.35q-95.15-.52-190.28-.95c-7,0-13.83-.63-20.26-3.69C3.55,247-3.39,230.21,1.65,217.31c3.89-10,12.87-15.61,22.48-14.14s14.11,9.54,10.29,18.29C32.94,224.84,30.88,228,28.92,231.52ZM286.94,338c-1.3-4-2.13-6.67-3.06-9.33q-42-119.4-84-238.78-11-31.24-22.21-62.44c-4-11.2-12-18.12-23.69-20.28-8.4-1.56-16.09.61-21.4,7.65s-3.73,14.66-.29,22c2.31,4.91,4.79,5.69,9.64,3.34,2.62-1.27,5-3.12,7.55-4.47,4.67-2.44,8.1-1.66,11,2.71a26,26,0,0,1,2.83,6.55c4,12.69,7.85,25.43,11.84,38.13,7.18,22.84,14.21,45.75,21.77,68.47,2.85,8.53,1.26,15.11-5.6,20.58a120,120,0,0,1-10.18,7.72c-8.26,5.28-14.75,3-18.28-6.1a50.38,50.38,0,0,1-1.41-5.37c-1.53-5.92-2.85-11.91-4.66-17.74-2.23-7.21-7.7-10.48-15-11.25-7.11-.76-13.16,1-17.76,6.82-5,6.26-9.84,12.61-15.14,18.59A36.93,36.93,0,0,1,48,156.62a109.56,109.56,0,0,1-6.38-16.34c-3.36-10.94-6.28-22-9.43-33-2.59-9-6.39-17.53-12.42-24.82C17.69,80,15,78,11.71,75.09c-.42,2.58-.78,3.58-.7,4.55,1.38,16.44,2.59,32.9,4.3,49.31,1.33,12.69,7.26,23.89,12.92,35,7.6,14.95,15.82,29.59,23.45,44.53C57.33,219.58,51,236.74,39.76,242c-4.7,2.19-9.14,1.38-13.21-2.41s-5-7.78-2.59-13c1.25-2.63,3.14-5,4.3-7.65,2.11-4.86,0-8.86-5.32-9a16.93,16.93,0,0,0-9.61,2.65c-5.13,3.56-7.18,9.1-6.6,15.41,1,11.06,7,18.26,17.83,20.9a48.74,48.74,0,0,0,11.08,1q99.14.78,198.27,1.44c9.91.07,11.22.93,14.77,10q11.19,28.63,22.36,57.28A38.57,38.57,0,0,0,286.94,338Z"/></g></g></svg>