<svg xmlns="http://www.w3.org/2000/svg" viewBox="0 0 266.76 485.83"><g id="Layer_2" data-name="Layer 2"><g id="Layer_1-2" data-name="Layer 1"><path d="M142,185.68c4.07,1.2,6.69,2.3,9.43,2.72,14.21,2.21,28.45,4.22,42.67,6.35,8.36,1.25,10.25,5.35,5.85,12.73-1.22,2.05-2.77,3.91-4.19,5.84Q168,251,140.25,288.64C99,344.33,66.18,405,36,467.1c-2.09,4.31-4.15,8.65-6.51,12.82-2.05,3.62-5,6.59-9.6,5.78s-6-4.72-6.56-8.91C10.18,454.64,7,432.51,3.88,410.35,2.52,400.59,1.45,390.79.22,381a26.76,26.76,0,0,1,4.26-18.25c7-11,13.77-22.18,20.46-33.39,3.5-5.87,7.81-9.35,15.07-7.17a15.16,15.16,0,0,0,4.77.31c8-.23,11.66-3.7,12.19-11.68.16-2.39,0-4.8-.07-7.19-.15-6.4-.08-12.81-.56-19.18-.67-8.82,3.75-14.06,11.34-17.25,6.87-2.9,13.72-5.86,20.72-8.42s10.9-7.36,12.91-14.15c3.21-10.8,3.2-20.88-5.48-29.66-9-9.08-9.73-19.78-4.48-31,2.61-5.55,2.83-11.1-.19-16.1-7.24-11.93-6.58-24-2.93-36.86,3.19-11.23,4.49-23,7.08-34.4C98.65,82,89.5,70.25,79,65.17,69.2,60.4,59.28,55.85,49.49,51a52.76,52.76,0,0,1-10.24-6.12c-5-4-4.24-9.48,1.66-11.93,3.85-1.59,8.2-2.18,12.38-2.8,39-5.81,78-11.5,117-17.3C197.92,8.77,225.56,4.52,253.21.37a20.75,20.75,0,0,1,5.55-.28c6.06.77,8.87,4.6,7.76,10.64a42.74,42.74,0,0,1-2.16,6.84q-10.58,28.88-21.19,57.74c-3.81,10.37-8.37,13.35-19.4,12C210,85.64,196.2,84.24,182.61,81.7s-24.08,2.78-33.83,10.59c-5.61,4.5-6.64,11.89-9,18.39-3.14,8.64-1,16.14,3.76,23.43,3.81,5.83,8.68,9.94,15.72,11.32,9.92,1.95,19.83,4,29.69,6.2a59.31,59.31,0,0,1,12.89,4.06c5.81,2.83,6.24,7.32,2.17,12.4-8.86,11.08-25.75,11.11-36,6.61-11.16-4.9-11.84-4.95-20.3,4.09C146.11,180.51,144.68,182.41,142,185.68ZM43.81,38.26c.44,4,3.72,4.69,6.07,5.85C60.39,49.27,71.12,54,81.6,59.25c15.84,7.93,22.87,21.3,19.84,38.73-2.55,14.68-5.78,29.26-9.07,43.8-1.36,6-1.18,11.56,1.77,17,1,1.86,1.75,3.88,2.65,5.81,3.46,7.39,3.94,14.64.25,22.28-4.21,8.74-3.29,17.08,3.83,24.25,9.25,9.32,10.35,20.38,7.31,32.58-2.56,10.32-7.94,17.75-18.28,21.4-6.77,2.39-13.32,5.41-20,8.15-4.93,2-7.77,5.36-7.18,11.06.28,2.64.1,5.33.14,8,.12,6.93.68,13.88.24,20.77-.56,8.75-5.92,14.19-14.54,15.5a21.69,21.69,0,0,1-8.72,0c-4.86-1.31-7.41.66-9.73,4.56-6.4,10.76-12.88,21.48-19.64,32a23.54,23.54,0,0,0-3.79,16.68c3.63,26.39,7.14,52.79,10.75,79.18.82,5.93,1.84,11.84,2.77,17.76l1.75.5c1.58-2.55,3.36-5,4.7-7.68,6.91-13.81,13.55-27.77,20.57-41.53C73.58,378.48,102.51,328.49,137.16,282c18-24.15,35.76-48.47,53.6-72.73,1.66-2.27,3.13-4.68,5.19-7.78-16-2.33-30.72-4.43-45.45-6.68a29.35,29.35,0,0,1-8.4-2.33c-5.93-2.89-7.31-8-3.25-13.1A85.71,85.71,0,0,1,150.05,168c4.93-4.26,10.7-5,16.26-1.37,5.95,3.9,12.36,4.43,19.14,4.15,6.39-.27,10.92-3.2,14.82-9.27-4.38-1.3-8.08-2.63-11.88-3.46-10.4-2.29-20.86-4.32-31.27-6.53-7.69-1.63-13.43-6.05-17.93-12.43-6.68-9.49-9.64-19.5-5.37-30.84,1.59-4.24,2.83-8.64,4.83-12.68,1.5-3,3.44-6.27,6.07-8.28,11.47-8.78,23.66-14.91,39.1-11.89,13.31,2.6,26.89,3.85,40.37,5.53,8.2,1,10.24-.37,13.08-8.12q10.47-28.5,20.89-57c.95-2.63,1.6-5.37,2.48-8.35-2-.53-3-1.15-3.92-1Q150.45,22.26,43.81,38.26Z"/></g></g></svg>