<svg xmlns="http://www.w3.org/2000/svg" viewBox="0 0 424.3 328.55"><g id="Layer_2" data-name="Layer 2"><g id="Layer_1-2" data-name="Layer 1"><path d="M270.67,60.17a18.45,18.45,0,0,0,1.51-2.85c2.72-9.91,3.78-11,14-11.78,7.16-.59,14.36-.92,21.55-1.13a62.87,62.87,0,0,0,31.8-9.31q23.79-14.7,47.56-29.43a59,59,0,0,1,6.91-4c7.56-3.31,13.24-1.72,18.16,5,3.16,4.29,6.31,8.6,9.28,13,4.4,6.56,3.76,11.9-2.44,16.79-5.85,4.61-11.93,9-18.19,13-9.58,6.18-17.15,14.23-23.71,23.44-10.83,15.18-21.69,30.34-32.79,45.32a49.79,49.79,0,0,1-10,10.19c-12.37,9.25-25,18.12-37.57,27.13-.44.31-.89.6-1.34.87-7.37,4.52-9.84,4.14-15.88-2.74l-63.86,12.88c-12.78,2.58-25.52,5.45-38.36,7.67a48.32,48.32,0,0,1-14.1-.16c-6.12-.79-6.47-1-9,4.95-8.35,19.92-8.57,14.17-.31,33.53,3.34,7.84,6.55,15.76,10.44,23.32a46.13,46.13,0,0,1,4.57,28.7,188.79,188.79,0,0,1-5.14,23.37c-2.21,7.79-8.49,12-17.68,12.31s-18.67.59-28,.15c-11.93-.57-23.29,1.67-34.48,5.42q-29.14,9.76-58.31,19.44a84.51,84.51,0,0,1-11.56,3.07c-4.82.86-9-.65-11.83-4.85s-2.39-8.56.12-12.78a30.89,30.89,0,0,1,2.33-3.24q16.13-20.37,32.28-40.71c4.1-5.14,4.79-7.43,1.07-12.86-5.13-7.48-5.14-15.21-3.57-23.66,5.16-27.74,10.46-55.47,14.71-83.36,2.1-13.8,8.22-23.87,20.27-30.58,1.85-1,3.51-2.41,5.33-3.52,3.73-2.29,5.9-5.37,5.11-9.93C78.1,94.11,82.83,88.92,90.1,86.16c17.63-6.71,35.21-13.79,53.31-19,21.78-6.31,44.19-9.49,67.08-8.41,18.36.86,36.75,1,55.12,1.44C267.19,60.21,268.77,60.17,270.67,60.17Zm10.08-7.78a22.45,22.45,0,0,0-1.43,2.72C276.39,66.05,275,66.87,263.9,66.54c-21-.63-42.09-1-63.14-1.35a118.18,118.18,0,0,0-15.18.33c-31.49,3.55-61.44,12.7-90.43,25.24-1.71.74-3.33,1.66-5,2.56C87.11,95,85.35,97.49,86,101.15c1.45,8.66-2.74,14.22-9.88,18.25-1.85,1-3.51,2.43-5.35,3.49-9.26,5.31-13.58,13.36-15.29,23.86-4.56,28.12-9.69,56.16-14.9,84.17-1.37,7.4-1.38,14,3.22,20.51,3.92,5.53,3.7,12.74-1.64,19-11,13-21.34,26.61-31.93,40-.83,1-2,2-2.3,3.22-.52,1.91-1.35,4.7-.45,5.77,1.25,1.49,4,2.32,6.08,2.37,2.29.05,4.64-1,6.92-1.78,20.48-6.73,41-13.42,61.41-20.29,11.72-3.94,23.58-6.33,36.06-5.73,8.51.41,17.06.09,25.58-.07,9.93-.18,12.82-2.37,15.29-11.69,1.3-4.88,2.55-9.81,3.36-14.79,1.62-9.89,1.35-19.5-3.54-28.78-3.84-7.28-6.82-15-10.14-22.59-10.15-23.16-8.78-18.58.2-40.43,3.4-8.28,6.72-9.51,15.74-7.92a34.73,34.73,0,0,0,12.49.08q48.6-9.52,97.08-19.66c6-1.26,11.06-1.65,14.18,4.86a46.63,46.63,0,0,0,4.56-2.5c12.38-8.8,24.85-17.49,37-26.57a49.8,49.8,0,0,0,10-10.21c11.1-15,22-30.16,32.8-45.34,6.73-9.42,14.54-17.63,24.35-23.94,6.05-3.9,11.85-8.19,17.54-12.57,4-3.06,4.2-4.75,1.57-8.76q-4.37-6.69-9.21-13.06c-2.93-3.85-5.3-4.48-9.72-2.63a50.61,50.61,0,0,0-7,3.86c-14.26,8.85-28.6,17.58-42.7,26.69a78.44,78.44,0,0,1-43.75,13C295.94,51,288.27,51.9,280.75,52.39Z"/></g></g></svg>