<svg xmlns="http://www.w3.org/2000/svg" viewBox="0 0 316.81 193.12"><g id="Layer_2" data-name="Layer 2"><g id="Layer_1-2" data-name="Layer 1"><path d="M180.08,25.88c-3.94.7-6.35.75-8.46,1.57-8.44,3.24-16.81,6.69-25.18,10.13-10.51,4.32-14.69,12.39-14,23.49s4.83,19.37,15.83,23.55c23.64,9,47.19,18.18,70.77,27.3,5.47,2.11,10.88,4.35,16.39,6.33,14,5.06,21.26,15.64,23.31,29.81a210.68,210.68,0,0,1,1.67,25.51c.24,11.87-6.53,18.79-18.51,19.46-2.65.15-5.33.06-8,0q-80.76-.51-161.51-1.11a92.7,92.7,0,0,1-17.44-1.69c-27.63-5.6-41.48-26.22-36.62-54.08.41-2.36.9-4.71,1.33-7.07,1.3-7.09.24-9.16-6.32-12.76a50,50,0,0,1-6.79-4.16c-7.72-6-8.72-14.09-2.32-21.52a34,34,0,0,1,9.26-7.42C52.7,61.76,92.22,40.79,131.23,18.89,150.93,7.84,171.31,1,194.05.45,215.64,0,237.18-.94,258.61,2.82a44.67,44.67,0,0,1,27.23,15.33,180.89,180.89,0,0,1,26.75,41.54c6.84,14.71,4.29,29.76-.07,44.5-1.68,5.7-7,8.33-12.81,6.77-14.39-3.84-28.86-7.57-42.92-12.43-6.62-2.3-12.93-6.42-18.37-10.94-8.7-7.22-11.35-17-8.81-28.15,2-8.77,6.42-16.29,11.66-23.43,2.68-3.65,5.51-7.22,7.85-11.08.8-1.32,1.06-4.27.26-5a6.48,6.48,0,0,0-5.48-1.11c-9.5,3.65-18.83,7.88-24.81,16.64A194,194,0,0,0,209,52.7c-2.61,4.83-5.77,8.92-11,11C192.37,66,187,65.62,182.15,61.9s-6.51-9-5.52-14.93c.52-3.15,1.54-6.21,2.07-9.36C179.26,34.3,179.5,30.93,180.08,25.88ZM152.71,185.63v1.05h84.78a47.8,47.8,0,0,0,4.79-.08c8.13-.85,11.92-4.86,11.7-13.15a212.3,212.3,0,0,0-1.64-24.72c-1.67-11.54-7.42-20.4-19.11-24.41-4-1.38-7.94-3.07-11.91-4.61-25.57-9.92-51-20.11-76.73-29.65-21.12-7.84-22.65-38.15-12.93-49.47a21.77,21.77,0,0,1,4.57-4.43c11.81-7.45,24.79-12.34,38.16-16,7.11-1.93,12,2.59,11.87,10a55.8,55.8,0,0,1-1.5,9.45c-.55,2.88-1.53,5.69-1.86,8.58-.89,7.87,5.82,12.88,12.86,9.35,2.67-1.34,4.93-3.95,6.73-6.44s2.9-5.68,4.3-8.55c7.06-14.42,18.72-23.62,33.38-29.39,6.84-2.69,11.18-1.91,14.41,2.41,3.41,4.57,3.21,8.25-1.14,14.63-2.7,4-6,7.54-8.4,11.67-3.29,5.73-6.56,11.61-8.72,17.82-3.34,9.58-.33,18,7.47,24.25,3.69,3,7.84,5.87,12.27,7.32,14.64,4.82,29.5,9,44.3,13.32,3.43,1,5.88-.59,6.69-3.92,3.36-13.89,6-27.94-1.7-41.22-6.26-10.82-13.11-21.3-20-31.76-8.55-13-21.23-18.52-36.41-20-23.2-2.27-46.32-1.59-69.46.39a74.83,74.83,0,0,0-29.71,8.56Q82.75,53.08,15.61,89.32A22.9,22.9,0,0,0,10,93.71c-5,5.36-4.6,9.78,1.24,14a47.1,47.1,0,0,0,5.55,3.13c8.39,4.49,11,9.75,9.26,19-.49,2.61-1.09,5.21-1.52,7.84-4,24.27,7.51,41.27,31.59,46.32a80.3,80.3,0,0,0,15.85,1.57C98.87,185.72,125.79,185.63,152.71,185.63Z"/></g></g></svg>