<svg xmlns="http://www.w3.org/2000/svg" viewBox="0 0 387.48 240.29"><g id="Layer_2" data-name="Layer 2"><g id="Layer_1-2" data-name="Layer 1"><path d="M67.28,38.51c-4.28-2.09-8.09-3.83-11.79-5.79-7-3.68-7.8-7.6-2.36-13.07C58.76,14,64.81,8.75,70.78,3.43,74.17.41,78.14-1,82.58.83c4.88,2.05,6.15,6.23,6,11.12Q88,44.32,87.44,76.7c0,1.86-.23,3.73-.17,5.59.2,5.86,1.85,8.41,7.33,9.69,12.22,2.86,21.76,9.47,27.68,21,4.42,8.61,11.33,11.55,21.27,9.83,8.55-1.48,17.47-1.25,26.21-1.06,6.5.15,11.56,3.49,14.69,9.51a68.45,68.45,0,0,0,5.17,8.06c7.12,10,15.76,16.83,29,17,15.44.15,30.86,1.66,46.3,2.27,18.11.72,36.23,1.09,54.34,1.64,9.12.28,13.75,4.18,15.28,13.1,1.29,7.52,2.31,15.1,3.56,23.43,12.44-7.49,25.23-6.37,37.91-4.79,9.72,1.2,12,4.67,11.31,14.57-1.18,16.35-7.54,25.08-23.43,29.3a118.83,118.83,0,0,1-29.11,4.28c-46.1.37-92.21.18-138.32,0C141.33,239.8,86.16,239.34,31,239a47.32,47.32,0,0,1-5.59-.2c-6.17-.79-10.19-4.86-10.68-11a41.05,41.05,0,0,1,.39-7.16c.65-6.67.67-6.67-5.87-9.8-7.49-3.6-11-11.38-8.4-20.26a133.38,133.38,0,0,1,6.34-16.37q27.93-63.21,56-126.35ZM380.39,199.33c-12.26-2.23-24.65-4.44-36.73,2.09-7.39,4-10.69,2.62-12.17-5.72-1.22-6.81-2-13.71-3.13-20.52s-3-8.37-10.09-8.59C301,166,283.64,165.7,266.34,165c-16.5-.69-33-2.2-49.47-2.51-13.33-.25-22.61-6.82-30.33-16.64a72,72,0,0,1-7.11-10.59c-2.52-4.76-6.29-7.37-11.44-7.34-8,0-16.08-.27-23.83,1.19-12.22,2.29-20.79-1.77-27-12.08-1-1.6-2-3.15-2.94-4.76a25.8,25.8,0,0,0-13.11-11.2c-3.46-1.37-7-2.49-10.58-3.56-5.44-1.64-8.54-5.25-9.25-10.82a55.48,55.48,0,0,1-.34-8c.39-21,.86-42.09,1.21-63.13,0-2.8-.42-5.6-.75-9.65C69.91,9.55,64.61,18.87,55.86,25.46c3.07,1.58,5.1,2.7,7.19,3.68,11.57,5.36,12.26,7.24,7.16,18.73q-29,65.32-57.92,130.69a106.71,106.71,0,0,0-5.23,13.37c-2,7,.24,10.83,7.15,13.61C20.34,208,22,210.41,21.88,217c-.07,2.92-.77,5.83-.78,8.74,0,4.51,1.65,6.21,6.11,6.73a44.94,44.94,0,0,0,4.79.1q86.72.57,173.44,1.13c38.9.22,77.8.28,116.7.42,12.81,0,25.6-.4,38.07-3.62C376.31,226.34,382.28,217.35,380.39,199.33Z"/></g></g></svg>