<?xml version="1.0" encoding="utf-8"?>
<!-- Generator: Adobe Illustrator 26.0.1, SVG Export Plug-In . SVG Version: 6.00 Build 0)  -->
<svg version="1.1" id="Layer_1" xmlns="http://www.w3.org/2000/svg" xmlns:xlink="http://www.w3.org/1999/xlink" x="0px" y="0px"
	 viewBox="0 0 536.2 275.4" style="enable-background:new 0 0 536.2 275.4;" xml:space="preserve">
<g id="Layer_2_00000141445410909580835250000006695819560126184637_">
	<g id="Layer_1-2">
		<path d="M195.8,261.5c-3.4,1.5-6.3,2.7-9.2,4c-9.6,4.5-19.5,7-30.1,6.6c-13.8-0.6-27.8-0.1-41.5-1.5c-21.2-2.1-37.2-13.4-48.9-31
			c-9.5-14.2-14.7-30.1-17.2-46.9c-3.9-25.8-7.8-51.5-11.6-77.4c-0.6-4.1-1.5-7.6-6.2-9.1c-3.8-1.2-5.8-4.5-6.6-8.4
			C21.4,82,14.2,67.7,7.2,53.3c-3.3-6.7-5.6-13.8-6.8-21.1c-1.9-12.1,4.9-21.5,17.4-23c15.6-2,30.9-5.6,46.3-8.5
			c11-2.1,16.2,0.2,22.4,9.4c13.5,20.1,26.6,40.5,40.9,60.1c7.8,10.7,17,20.5,26.5,29.8c28.5,28,57.5,55.6,86.1,83.5
			c3.9,3.8,7.3,5.6,13.3,4.3c9.7-2.1,19-0.4,26.5,7.3c4.4,4.6,10,6.6,16.5,6.8c48,1.4,95.9,3,143.9,4.4c23.5,0.7,46.9,1.2,70.3,1.9
			c22.9,0.7,32.3,17.4,20.9,37.3c-6.2,10.8-14.9,18.5-27.2,22.1c-16.7,4.8-33.7,8-51.1,7.8c-81.8-1.1-163.6-2.3-245.5-3.4
			C199.4,271.8,198.8,271.3,195.8,261.5z M204.4,265.2c1,0.2,2,0.3,3.1,0.4c82.6,1.2,165.3,2.3,247.9,3.4c15.9,0.2,31.2-3,46.4-7.2
			c10.9-3,18.7-9.9,24.1-19.6c8.7-15.6,2.3-27-15.5-27.5c-20.2-0.7-40.5-1.1-60.7-1.7c-50.9-1.5-101.8-3.2-152.7-4.5
			c-8.5-0.2-15.8-2.6-21.7-8.6c-6.1-6.3-13.7-7.7-21.3-5.6c-8,2.2-13-0.6-18.4-5.9c-29.2-28.5-58.7-56.6-87.9-85.1
			c-8.5-8.4-16.9-17.1-23.9-26.8C109.2,56,95.5,35,81.5,14.3C76.3,6.6,73.7,5.4,64.8,7C49.4,9.9,34,13.4,18.5,15.5
			c-7.9,1.1-13.2,6.1-11.9,15.6c0.9,6.3,2.8,12.4,5.7,18.1C19.5,64.1,27,78.8,30.5,95.2c0.4,2,2.1,4.8,3.9,5.4
			c6.7,2.4,8.3,7.6,9.2,13.7c3.8,25.8,7.7,51.6,11.6,77.4c2.4,15.7,7.1,30.6,15.9,44c10.7,16.2,25.3,26.7,44.8,28.7
			c12.2,1.2,24.5,0.7,36.7,1.4c12,0.6,24-2,34.7-7.6C197.7,253,200.6,254.4,204.4,265.2L204.4,265.2z"/>
	</g>
</g>
</svg>
