<svg xmlns="http://www.w3.org/2000/svg" viewBox="0 0 555.87 201.94"><g id="Layer_2" data-name="Layer 2"><g id="Layer_1-2" data-name="Layer 1"><path d="M437.6,127.47c-33.3-1-66.63-1.34-99.87-3.31-14.74-.87-29.33-4.84-43.9-7.85a25.53,25.53,0,0,1-9.85-5c-4.26-3.29-4.1-7.46.23-10.6,2.3-1.68,5.19-2.61,7.88-3.71,8.85-3.63,18.06-6.55,26.53-10.91,13.9-7.15,14.65-15,2.33-24.62-8.37-6.54-17.47-12.2-26.55-17.74-5.81-3.54-11.28-2.93-14,.42s-1.44,8.11,3.44,13.51c2,2.17,4.26,4,6.13,6.28,4.08,4.9,4.09,8.84-.33,13.46a62,62,0,0,1-8.65,7c-26.87,19.33-54.77,36.87-85.54,49.47a144.65,144.65,0,0,0-15.78,7.7c-9.95,5.56-12.09,11.07-8.86,21.87,1.82,6.12,3.77,12.21,5.66,18.31,4.15,13.39-6,21.51-17.79,20-3.91-.51-7.69-2-11.54-3.1C131,194.23,115,189.3,98.67,185.51c-17.93-4.17-36.08-1.81-54.07.43-9,1.12-17.82,3.2-26.78,4.44C6.47,192-1.41,183.83.21,172.62c1-6.63,5.35-11.08,12-11.91a44,44,0,0,1,7.17-.08c23.44.9,46.87,1.89,70.3,2.71a49.82,49.82,0,0,0,11.11-.88c6-1.17,10.82-4.16,13.69-9.92,6.83-13.7,17.76-23,31.52-29.36q41.67-19.26,83.26-38.75c2.41-1.12,4.9-2.12,7.21-3.43,5.76-3.28,7-6.12,5-12.6-3.13-9.89-6.56-19.69-9.86-29.53-.77-2.27-1.68-4.51-2.26-6.82C226.08,18.93,232.47,9.13,246,7.47c11.36-1.4,22.81-2.15,34.23-3C301.47,3,322.74,1.59,344,.15a54.74,54.74,0,0,1,33.56,8.11q44.78,27.87,89.64,55.57c2,1.26,4.06,2.57,6.19,3.66,2.54,1.32,4.68,1.31,7.13-1,6-5.67,8.47-6.16,15.5-2.08,15.65,9.1,31.12,18.51,46.53,28a28.52,28.52,0,0,1,11.66,13.84c5.52,13.78-3.56,23.43-15.1,23-20-.81-40-1.05-59.94-1.32-13.85-.19-27.71,0-41.57,0ZM488.26,68c-1.27,1.15-2.08,1.8-2.81,2.55-4.84,5-7.94,5.76-14.13,3a57.85,57.85,0,0,1-6.94-3.91q-45.19-28-90.33-56a48.39,48.39,0,0,0-29.77-7.08C323,8,301.75,9.37,280.49,10.9c-11.43.83-22.88,1.59-34.23,3-9.15,1.16-12.77,7-10.76,16,.58,2.59,1.55,5.09,2.39,7.62,3.2,9.59,6.53,19.15,9.57,28.79,3.12,9.89.67,15.76-8.3,20.6-2.58,1.39-5.3,2.5-7.95,3.73-27,12.59-54,25.31-81.12,37.71-13.31,6.08-23.94,14.76-30.43,28.11a19.62,19.62,0,0,1-12.4,10.64,59.13,59.13,0,0,1-16.44,2.54c-13.85-.13-27.69-1-41.54-1.58-11.18-.44-22.37-1-33.56-1.12-7.53-.09-11.37,5.73-8.56,12.3,1.69,4,5.14,5.56,10.72,4.67,8.93-1.42,17.82-3.2,26.78-4.46,23.4-3.29,46.74-3.8,69.75,2.78,11.51,3.3,22.94,6.89,34.41,10.3,3.57,1.07,7.12,2.44,10.77,2.91,8.45,1.08,12.75-3.74,10.66-11.88-1.59-6.18-3.7-12.23-5.54-18.34-4-13.4-.8-22.14,11.36-28.9a222.3,222.3,0,0,1,23-11.12c28.77-11.93,54.45-29,79.62-47,2.93-2.09,5.5-4.68,8.75-7.47-2.67-2.83-4.81-4.8-6.58-7-2.45-3.12-5.24-6.18-6.79-9.74-4.45-10.23,2.74-20,13.84-18.72a29.17,29.17,0,0,1,11.19,3.87A263.79,263.79,0,0,1,321.8,54,51.77,51.77,0,0,1,333,65.21c4.86,6.8,4.12,13.69-1.81,19.53a40.34,40.34,0,0,1-11,7.8c-7.94,3.68-16.24,6.6-24.39,9.86-2.48,1-4.93,2.08-7.4,3.13.05.62.1,1.25.14,1.88,4.42,1.61,8.72,3.91,13.29,4.7,13.61,2.35,27.28,5,41,5.88,24.2,1.49,48.46,1.88,72.71,2.41,40.77.9,81.54,1.34,122.3,2.45,11.38.32,14.49-8.47,9.19-16.4A37.48,37.48,0,0,0,536.3,96c-13.47-8.58-27.29-16.61-41-24.77A72.93,72.93,0,0,0,488.26,68Z"/></g></g></svg>