<svg xmlns="http://www.w3.org/2000/svg" viewBox="0 0 417.34 286.51"><g id="Layer_2" data-name="Layer 2"><g id="Layer_1-2" data-name="Layer 1"><path d="M32.33,214.24c-8-2.85-15.12-5-21.94-7.91-9.89-4.21-12.21-9.49-9.11-19.74a56.74,56.74,0,0,1,4.33-10.27q23.78-44.38,47.72-88.68c5.47-10.15,14-11.71,22.85-3.91,8.21,7.21,16.12,14.76,24.2,22.12,2.12,1.93,4.37,3.72,7.22,6.13,1.67-3.4,3-6.22,4.42-8.94,5.64-10.58,11.49-21.05,17-31.71,6.11-11.92,13.59-11.65,23.45-5.09Q180.74,85,209.1,103.72c2.89,1.9,5.8,3.8,8.76,5.58a32.9,32.9,0,0,0,16.68,4.88q57.57.93,115.14,1.92c1.07,0,2.14,0,3.2-.08,7.58-.59,9.37-2.18,9.84-9.71.77-12.45-2.05-24.32-6.3-35.94-5.78-15.82-10.14-32-11.22-48.88-.36-5.48.45-10.65,3.43-15.32,4.64-7.26,11.77-8.45,17.07-1.75,5.12,6.47,11.14,9.5,19.06,9.78,4.5.16,7.51,2.82,9.06,6.78a48.3,48.3,0,0,1,2.95,10.72c4.88,34.54,9.52,69.12,14.44,103.67,1.53,10.8,3.52,21.55,5.63,32.26A20.83,20.83,0,0,1,414.42,183c-2.45,4.12-4.83,8.29-7.5,12.27-3.49,5.21-8.33,8-14.83,7.76-21.59-.72-43.17-1.21-64.75-2-8.56-.31-12.32-3.88-14-12.45C311.06,177,311.06,177,299,176.81c-6.66-.12-13.33-.42-20-.42-5.54,0-7.15,1.27-8.28,6.59-.73,3.37-.92,6.86-1.36,10.3-.76,6-3.13,9.39-8.94,9.22-19.43-.55-38.86-1.6-58.25-3-5.31-.37-7.73-4.15-7.7-9.54,0-2.65.68-5.29.74-8,.13-6-1.69-8.23-7.58-9.28-3.4-.61-6.87-.83-10.31-1.24a37.2,37.2,0,0,1-19.5-8.45c-13.44-10.93-27-21.69-40.55-32.48a38.45,38.45,0,0,0-4-2.33c-1.06,3-2,5.33-2.77,7.78-8.79,29.43-14.12,59.54-17.78,90-2,16.64-5.06,33.16-7.75,49.71a29.29,29.29,0,0,1-2.15,6.83c-1.16,2.68-3.51,4.48-6.34,3.76-2.05-.52-4.93-2.17-5.38-3.88-3.19-11.92-12.77-18.75-20.72-26.84-5.41-5.51-11.33-10.52-16.81-16-7.11-7.06-7.63-10.74-3.54-20C30.79,218,31.45,216.35,32.33,214.24Zm44.33,63.41,2.3-.22c2.55-17.88,5.4-35.71,7.59-53.63,3.86-31.51,9.47-62.64,18.9-93,3.17-10.21,8.11-11.56,16.23-5,13,10.6,26.29,20.86,39.23,31.56a36.79,36.79,0,0,0,20.34,8.31c1.86.19,3.73.25,5.58.47,11.08,1.35,15.44,6.6,14.72,17.67-.18,2.83-.37,5.65-.62,9.39,20.87,1.89,40.89,2.87,61.42,3,.65-4.84,1.06-8.77,1.71-12.67,1.73-10.32,5.79-13.72,16.13-13.55,6.93.11,13.85.34,20.78.46,15.54.28,15.77.46,18.35,15.46,1.23,7.17,2.68,8.56,9.85,8.81,17.31.61,34.62,1.29,51.94,1.63,19.07.37,16,2.91,27.26-15.62a17.18,17.18,0,0,0,2.18-12.2q-8.69-56.43-17-112.93c-1.21-8.16-2.09-16.37-3.28-24.54s-2.42-9.33-10.72-10.94c-6.65-1.29-12.86-3.33-16.84-9.57-1.15-1.79-3.36-2.9-5.16-4.38-5.43,4.3-6.3,9.36-6,14.87,1,16.11,5.38,31.43,10.51,46.6,1.95,5.79,4.27,11.6,5.13,17.58a127.29,127.29,0,0,1,1.32,24.58c-.4,7.86-4.37,11.23-12.25,12.27a82.22,82.22,0,0,1-12,.44c-30.91-.46-61.82-.86-92.73-1.55-29.16-.65-25.94,1.54-53.33-16.72Q174,88.07,149.62,72.08c-9.13-6-10.47-5.81-15.88,4-5.93,10.71-11.74,21.5-17.14,32.49-5.95,12.13-8.45,12.87-18.49,3.85-8.72-7.83-17.19-15.94-26-23.71-5.86-5.18-9.65-4.45-13.23,2.18Q34.8,135.5,10.8,180.2A43.29,43.29,0,0,0,7,189.81c-1.41,5.53-.37,7.83,4.9,10.17a132.42,132.42,0,0,0,15.72,5.74c12.7,3.81,13.47,5,7.9,17.1-2.27,4.93-1.52,8.59,2.32,12.11,5.5,5,11,10.1,16.3,15.33C62.58,258.59,71.84,266.25,76.66,277.65Z"/></g></g></svg>