<svg xmlns="http://www.w3.org/2000/svg" viewBox="0 0 524.61 327.85"><g id="Layer_2" data-name="Layer 2"><g id="Layer_1-2" data-name="Layer 1"><path d="M404.12,302.12c0-4-.07-7.63,0-11.28.24-9.94,4.51-14.71,14.49-15.4,8.76-.61,17.57-.76,26.36-.86,20.26-.24,40.52-.09,60.76-.6,8-.21,13.15,2.09,14.79,12,1.62,9.71,2.91,19.5,3.89,29.3.94,9.49-1.5,12.23-11,12.27-42.64.18-85.28.5-127.92.11-20.09-.18-37.87-7.37-53.06-21q-57.18-51.19-114.64-102.08c-1.19-1.06-2.4-2.1-3.55-3.21-5.27-5.08-6.8-10.88-.66-16.51a17.11,17.11,0,0,0,4.48-6.5c6.29-17.47,10-35.34,7.33-54-.08-.53-.14-1.06-.25-1.58-3.53-17.4-20.25-32.41-40.51-36.36-18.48-3.61-35.09,3.44-45.55,19.26-7.34,11.11-14.59,22.29-22.18,33.23-6.19,8.92-8.64,9.35-18.69,4.51-29.5-14.21-58.9-28.65-88.54-42.57C-1.24,95.74-2.07,88.5,3,80.34Q17,57.59,31.82,35.27A43.56,43.56,0,0,1,54.19,18C61,15.59,67.72,13.09,74.3,10.21c6.09-2.66,10.43-1.12,14.8,3.66,14.38,15.75,29.34,31,43.48,46.9,5.29,6,10,6.68,17.36,4.3,10.64-3.46,18.68-9.16,25.05-18.47,9.17-13.4,19.31-26.14,29.17-39.06,6.51-8.52,12.53-9.82,21.3-3.89,21.18,14.34,39.73,31,51.42,54.61,13.2,26.64,24.35,53.86,29,83.38,2.11,13.41,3.64,26.91,5.55,40.35,4.13,29.07,18.08,52.55,40.66,71.07,1.24,1,2.53,2,3.72,3,4.75,4.27,5.06,7.2,1,12.31-2.48,3.13-5.4,5.91-7.86,9-4.83,6.2-4.64,8.69.71,14.56s11.78,9.57,19.46,10C380.23,302.54,391.41,302.12,404.12,302.12ZM80.73,14.69c-8.35,3.23-16.44,6.55-24.67,9.5-7.55,2.7-13.8,7.14-18.17,13.74C27.9,53,18.05,68.23,8.51,83.61c-3.74,6-2.83,8,3.56,11.14Q57,116.52,102,138.14c5.35,2.58,5.85,2.58,9.18-2.26q11.13-16.11,21.78-32.54C146.73,82.08,169.52,74,193.44,82.08c27.47,9.29,41.89,31.66,39,60.45-.29,2.91-.42,5.86-1,8.74-2.75,14.58-4,29.74-16.14,41.5,2.59,2.7,4.76,5.3,7.25,7.52C260.38,234,298.35,267.5,336,301.35a75.35,75.35,0,0,0,51.66,20c40.78.2,81.56,0,122.35-.11,2.55,0,5.09-.41,7.5-.62.33-1.56.72-2.35.63-3.09-1.28-10.31-2.43-20.64-4-30.9-.83-5.32-2.23-6.18-8.37-6.12q-41.58.44-83.16,1a33,33,0,0,0-4,.26c-6,.86-7.81,2.74-8.08,8.78-.14,2.93.13,5.88-.06,8.8-.42,6.74-3.31,9.8-9.94,9.85-9.86.06-19.74,0-29.58-.55a37.09,37.09,0,0,1-25-11.19c-9-9-9.32-15.2-1.31-25.06,2.65-3.25,5.49-6.36,8.44-9.77-1.35-1.28-2.23-2.24-3.23-3-25.54-20.37-41-46.49-45.23-79.07-1.64-12.67-3.13-25.38-5.12-38-4.25-26.82-14.25-51.66-25.64-76.18-11.21-24.13-29-41.82-50.48-56.43-7.54-5.13-9.54-4.76-15.12,2.64Q192.19,34,176.24,55.49c-3.73,5-8.06,9.32-13.93,11.6-5.44,2.13-11.07,3.79-16.62,5.63s-10.14.45-14.28-4c-14.8-16.09-29.87-31.92-44.84-47.85C84.77,18.91,82.94,17,80.73,14.69Z"/></g></g></svg>